<svg width="157" height="90" viewBox="0 0 157 90" fill="none" xmlns="http://www.w3.org/2000/svg">
<path d="M155 15.2985C155 15.2985 147.644 17.052 143.525 15.2985C139.642 13.6453 137.787 7.69984 135.875 7.6995C133.962 7.69915 132.424 14.8351 128.225 15.2985C123.472 15.8231 122.487 2 118.662 2C114.837 2 115.155 14.4755 111.012 15.2985C105.731 16.3477 103.362 3.9002 99.5374 7.6995C95.7124 11.4988 81.7097 57.7211 76.5874 58.9929C71.4652 60.2648 70.8499 55.1937 67.0249 57.0932C63.1999 58.9927 65.1124 76.0905 59.3749 77.9905C53.6374 79.8905 52.033 77.9644 47.8999 76.0907C44.5026 74.5506 43.9842 70.3634 40.2499 70.3915C35.4677 70.4275 37.2788 78.9075 32.5999 79.8903C27.3306 80.997 26.3952 73.3934 21.1249 72.2912C13.2534 70.6451 1.99994 79.8903 1.99994 79.8903" stroke="#85BA49" stroke-width="3" stroke-linecap="round"/>
<path d="M144.455 16.2394C148.631 17.985 156.087 16.2394 156.087 16.2394V90H0.999954V80.5437C0.999954 80.5437 12.4069 71.3397 20.3858 72.9785C25.728 74.0757 26.6762 81.6456 32.0173 80.5437C36.7601 79.5653 34.9243 71.123 39.7717 71.0872C43.5569 71.0592 44.0824 75.2278 47.526 76.7611C51.7154 78.6264 53.3418 80.5439 59.1576 78.6524C64.9733 76.7609 63.0347 59.7391 66.9119 57.848C70.7891 55.957 71.4127 61.0056 76.6049 59.7394C81.797 58.4731 95.9907 12.4565 99.8679 8.67414C103.745 4.89175 106.146 17.2839 111.499 16.2394C115.699 15.4199 115.377 3 119.254 3C123.131 3 124.129 16.7616 128.947 16.2394C133.203 15.778 134.762 8.67379 136.701 8.67414C138.64 8.67448 140.519 14.5935 144.455 16.2394Z" fill="url(#paint0_linear_1_85)"/>
<defs>
<linearGradient id="paint0_linear_1_85" x1="76.6521" y1="21.913" x2="76.6521" y2="95.6739" gradientUnits="userSpaceOnUse">
<stop stop-color="#E4F5D1"/>
<stop offset="0.929726" stop-color="#E4F5D1"/>
</linearGradient>
</defs>
</svg>
